<svg xmlns="http://www.w3.org/2000/svg" viewBox="0 0 128 128" shape-rendering="crispEdges">

  <!-- Outer rim -->
  <circle cx="64" cy="64" r="58" fill="#2a0b5a" opacity="0.35"/>
  <circle cx="64" cy="64" r="57" fill="#d9d9d9" opacity="0.45"/>

  <!-- Reflective rainbow wedges -->
  <g>
    <rect x="24" y="20" width="8" height="8" fill="#ff3aa6"/>
    <rect x="32" y="18" width="8" height="8" fill="#ff7a2d"/>
    <rect x="40" y="18" width="10" height="8" fill="#ffd55d"/>

    <rect x="22" y="28" width="10" height="10" fill="#d9d9d9"/>
    <rect x="32" y="26" width="10" height="10" fill="#00a1de"/>
    <rect x="42" y="26" width="10" height="10" fill="#34c059"/>
    <rect x="52" y="24" width="10" height="10" fill="#ffd55d"/>

    <rect x="58" y="16" width="12" height="10" fill="#ed5e99"/>
    <rect x="70" y="16" width="12" height="10" fill="#d9d9d9"/>
    <rect x="82" y="18" width="10" height="10" fill="#00a1de"/>

    <rect x="92" y="22" width="10" height="10" fill="#00a1de"/>
    <rect x="100" y="30" width="8" height="10" fill="#34c059"/>
    <rect x="96" y="40" width="10" height="10" fill="#ffd55d"/>
    <rect x="92" y="50" width="10" height="10" fill="#ff712d"/>
    <rect x="90" y="32" width="10" height="10" fill="#ed5e99"/>

    <rect x="104" y="54" width="8" height="12" fill="#d9d9d9"/>
    <rect x="104" y="66" width="8" height="12" fill="#00a1de"/>
    <rect x="100" y="78" width="10" height="10" fill="#34c059"/>

    <rect x="90" y="90" width="12" height="10" fill="#34c059"/>
    <rect x="80" y="96" width="12" height="10" fill="#00a1de"/>
    <rect x="68" y="100" width="12" height="10" fill="#d9d9d9"/>
    <rect x="56" y="100" width="12" height="10" fill="#ed5e99"/>

    <rect x="44" y="100" width="12" height="10" fill="#ff712d"/>
    <rect x="32" y="96" width="12" height="10" fill="#ffd55d"/>
    <rect x="20" y="90" width="12" height="10" fill="#00a1de"/>

    <rect x="18" y="78" width="10" height="10" fill="#34c059"/>
    <rect x="16" y="66" width="10" height="12" fill="#ffd55d"/>
    <rect x="16" y="54" width="10" height="12" fill="#ff712d"/>
    <rect x="18" y="44" width="10" height="10" fill="#ed5e99"/>
    <rect x="20" y="36" width="10" height="10" fill="#d9d9d9"/>
  </g>

  <!-- Inner disc -->
  <circle cx="64" cy="64" r="22" fill="#1a1a1d" opacity="0.55"/>
  <circle cx="64" cy="64" r="21" fill="#3a3a40" opacity="0.55"/>

  <!-- Label -->
  <circle cx="64" cy="64" r="18" fill="#e9e9ec"/>
  <circle cx="64" cy="64" r="17" fill="#f7f7f9"/>

  <!-- Hub -->
  <circle cx="64" cy="64" r="7" fill="#cfcfd6"/>
  <circle cx="64" cy="64" r="6" fill="#ffffff"/>

</svg>