<?xml version="1.0" encoding="UTF-8"?>
<svg xmlns="http://www.w3.org/2000/svg" width="1024" height="1024" viewBox="0 0 1024 1024">
  <defs>
    <clipPath id="circleClip">
      <circle cx="512.0" cy="512.0" r="512.0" />
    </clipPath>
  </defs>
  <g clip-path="url(#circleClip)">
    <rect x="0" y="0" width="170" height="170" fill="#00a1de" /><rect x="170" y="0" width="170" height="170" fill="#b152c9" /><rect x="340" y="0" width="170" height="170" fill="#ffd55d" /><rect x="510" y="0" width="170" height="170" fill="#ff712d" /><rect x="680" y="0" width="170" height="170" fill="#ed5e99" /><rect x="850" y="0" width="170" height="170" fill="#34c059" /><rect x="0" y="170" width="170" height="170" fill="#a90c23" /><rect x="170" y="170" width="170" height="170" fill="#ed5e99" /><rect x="340" y="170" width="170" height="170" fill="#a90c23" /><rect x="510" y="170" width="170" height="170" fill="#34c059" /><rect x="680" y="170" width="170" height="170" fill="#ffd55d" /><rect x="850" y="170" width="170" height="170" fill="#00a1de" /><rect x="0" y="340" width="170" height="170" fill="#ff712d" /><rect x="170" y="340" width="170" height="170" fill="#b152c9" /><rect x="340" y="340" width="170" height="170" fill="#ffd55d" /><rect x="510" y="340" width="170" height="170" fill="#ed5e99" /><rect x="680" y="340" width="170" height="170" fill="#00a1de" /><rect x="850" y="340" width="170" height="170" fill="#a90c23" /><rect x="0" y="510" width="170" height="170" fill="#b152c9" /><rect x="170" y="510" width="170" height="170" fill="#34c059" /><rect x="340" y="510" width="170" height="170" fill="#ff712d" /><rect x="510" y="510" width="170" height="170" fill="#b152c9" /><rect x="680" y="510" width="170" height="170" fill="#a90c23" /><rect x="850" y="510" width="170" height="170" fill="#00a1de" /><rect x="0" y="680" width="170" height="170" fill="#34c059" /><rect x="170" y="680" width="170" height="170" fill="#ffd55d" /><rect x="340" y="680" width="170" height="170" fill="#ed5e99" /><rect x="510" y="680" width="170" height="170" fill="#ff712d" /><rect x="680" y="680" width="170" height="170" fill="#34c059" /><rect x="850" y="680" width="170" height="170" fill="#b152c9" /><rect x="0" y="850" width="170" height="170" fill="#00a1de" /><rect x="170" y="850" width="170" height="170" fill="#ff712d" /><rect x="340" y="850" width="170" height="170" fill="#a90c23" /><rect x="510" y="850" width="170" height="170" fill="#ed5e99" /><rect x="680" y="850" width="170" height="170" fill="#ffd55d" /><rect x="850" y="850" width="170" height="170" fill="#ff712d" />
  </g>
</svg>
