<svg width="1301" height="330" viewBox="0 0 1301 330" fill="none" xmlns="http://www.w3.org/2000/svg">
<g clip-path="url(#clip0_280_39)">
<path d="M121.064 329C51.4645 329 4.06445 284 4.06445 216.5C4.06445 148.4 51.4645 103.7 121.064 104C141.764 104 133.964 103.7 133.964 103.7L134.264 190.4C134.264 190.4 129.764 190.4 121.064 190.4C105.764 190.4 95.5645 199.1 95.5645 214.7C95.5645 230.3 105.764 239 121.064 239C129.764 239 134.264 239 134.264 239L133.964 329C133.964 329 137.864 329 133.964 329C132.164 329 128.264 329 121.064 329ZM141.467 267.8C141.467 238.1 157.967 206 208.367 206H255.167C255.167 196.1 243.167 194 219.167 194H160.067L181.967 104H255.167C308.267 104 344.567 126.8 344.567 183.5V329H204.767C157.667 329 141.467 298.1 141.467 267.8ZM234.167 246.2C234.167 251.9 238.967 253.7 244.367 253.7H255.167V238.4H244.367C238.667 238.4 234.167 240.5 234.167 246.2ZM355.111 104H458.311C507.511 104 550.411 131 550.411 190.4V329H460.411V211.4C460.411 201.2 460.411 193.4 451.411 193.4H445.111V329H355.111V104ZM671.811 329C610.611 329 560.811 287 560.811 216.5C560.811 146.9 598.311 104 671.811 104V29H761.811V329H671.811ZM671.811 191C659.811 191 652.911 204.5 652.911 215.3C652.911 228.8 661.311 239.9 671.811 239.9V191ZM772.369 242.6V104H862.369V221.6C862.369 231.8 862.369 239.6 871.369 239.6H877.669V104H967.669V329H864.469C815.269 329 772.369 302 772.369 242.6ZM978.068 329V190.4C978.068 131 1020.97 104 1070.17 104H1105.27V193.4H1077.07C1068.07 193.4 1068.07 201.2 1068.07 211.4V329H978.068ZM1093.79 267.8C1093.79 238.1 1110.29 206 1160.69 206H1207.49C1207.49 196.1 1195.49 194 1171.49 194H1112.39L1134.29 104H1207.49C1260.59 104 1296.89 126.8 1296.89 183.5V329H1157.09C1109.99 329 1093.79 298.1 1093.79 267.8ZM1186.49 246.2C1186.49 251.9 1191.29 253.7 1196.69 253.7H1207.49V238.4H1196.69C1190.99 238.4 1186.49 240.5 1186.49 246.2Z" fill="#34C059"/>
</g>
<defs>
<clipPath id="clip0_280_39">
<rect width="1301" height="330" fill="white"/>
</clipPath>
</defs>
</svg>
