<svg xmlns="http://www.w3.org/2000/svg" viewBox="6 6 20 16" shape-rendering="crispEdges">

<!-- row 1 -->
<rect x="8"  y="6" width="2" height="2" fill="#ff6b9a"/>
<rect x="10" y="6" width="2" height="2" fill="#ff6b9a"/>
<rect x="12" y="6" width="2" height="2" fill="#ff6b9a"/>
<rect x="18" y="6" width="2" height="2" fill="#ff6b9a"/>
<rect x="20" y="6" width="2" height="2" fill="#ff6b9a"/>
<rect x="22" y="6" width="2" height="2" fill="#ff6b9a"/>

<!-- row 2 -->
<rect x="6"  y="8" width="2" height="2" fill="#ff6b9a"/>
<rect x="8"  y="8" width="2" height="2" fill="#ff8fb5"/>
<rect x="10" y="8" width="2" height="2" fill="#ff8fb5"/>
<rect x="12" y="8" width="2" height="2" fill="#ff8fb5"/>
<rect x="18" y="8" width="2" height="2" fill="#ff8fb5"/>
<rect x="20" y="8" width="2" height="2" fill="#ff8fb5"/>
<rect x="22" y="8" width="2" height="2" fill="#ff8fb5"/>
<rect x="24" y="8" width="2" height="2" fill="#ff6b9a"/>

<!-- row 3 -->
<rect x="6"  y="10" width="2" height="2" fill="#ff6b9a"/>
<rect x="8"  y="10" width="2" height="2" fill="#ff8fb5"/>
<rect x="10" y="10" width="2" height="2" fill="#ff8fb5"/>
<rect x="12" y="10" width="2" height="2" fill="#ff8fb5"/>
<rect x="14" y="10" width="2" height="2" fill="#ff8fb5"/>
<rect x="16" y="10" width="2" height="2" fill="#ff8fb5"/>
<rect x="18" y="10" width="2" height="2" fill="#ff8fb5"/>
<rect x="20" y="10" width="2" height="2" fill="#ff8fb5"/>
<rect x="22" y="10" width="2" height="2" fill="#ff8fb5"/>
<rect x="24" y="10" width="2" height="2" fill="#ff6b9a"/>

<!-- row 4 -->
<rect x="6"  y="12" width="2" height="2" fill="#ff6b9a"/>
<rect x="8"  y="12" width="2" height="2" fill="#ff8fb5"/>
<rect x="10" y="12" width="2" height="2" fill="#ff8fb5"/>
<rect x="12" y="12" width="2" height="2" fill="#ff8fb5"/>
<rect x="14" y="12" width="2" height="2" fill="#ff8fb5"/>
<rect x="16" y="12" width="2" height="2" fill="#ff8fb5"/>
<rect x="18" y="12" width="2" height="2" fill="#ff8fb5"/>
<rect x="20" y="12" width="2" height="2" fill="#ff8fb5"/>
<rect x="22" y="12" width="2" height="2" fill="#ff8fb5"/>
<rect x="24" y="12" width="2" height="2" fill="#ff6b9a"/>

<!-- row 5 -->
<rect x="8"  y="14" width="2" height="2" fill="#ff8fb5"/>
<rect x="10" y="14" width="2" height="2" fill="#ff8fb5"/>
<rect x="12" y="14" width="2" height="2" fill="#ff8fb5"/>
<rect x="14" y="14" width="2" height="2" fill="#ff8fb5"/>
<rect x="16" y="14" width="2" height="2" fill="#ff8fb5"/>
<rect x="18" y="14" width="2" height="2" fill="#ff8fb5"/>
<rect x="20" y="14" width="2" height="2" fill="#ff8fb5"/>
<rect x="22" y="14" width="2" height="2" fill="#ff8fb5"/>

<!-- row 6 -->
<rect x="10" y="16" width="2" height="2" fill="#ff6b9a"/>
<rect x="12" y="16" width="2" height="2" fill="#ff8fb5"/>
<rect x="14" y="16" width="2" height="2" fill="#ff8fb5"/>
<rect x="16" y="16" width="2" height="2" fill="#ff8fb5"/>
<rect x="18" y="16" width="2" height="2" fill="#ff8fb5"/>
<rect x="20" y="16" width="2" height="2" fill="#ff6b9a"/>

<!-- row 7 -->
<rect x="12" y="18" width="2" height="2" fill="#ff6b9a"/>
<rect x="14" y="18" width="2" height="2" fill="#ff8fb5"/>
<rect x="16" y="18" width="2" height="2" fill="#ff8fb5"/>
<rect x="18" y="18" width="2" height="2" fill="#ff6b9a"/>

<!-- bottom -->
<rect x="14" y="20" width="2" height="2" fill="#d94875"/>
<rect x="16" y="20" width="2" height="2" fill="#d94875"/>

</svg>
